# xmcd
#
# Track frame offsets:
#	150
#	14395
#	34812
#	59272
#	80657
#	97720
#	107862
#	130472
#	148435
#	163807
#	180560
#	201645
#
# Disc length: 2973 seconds
#
# Revision: 1
# Processed by: cddbd v1.5PL3 Copyright (c) Steve Scherf et al.
# Submitted via: CDex 1.50Beta5
#
DISCID=b00b9b0c
DTITLE=ZELDA - 虹色のあわ
DYEAR=1996
DGENRE=Rock
TTITLE0=AWA
TTITLE1=おお神様
TTITLE2=Tokyo Time
TTITLE3=かなしくて
TTITLE4=ぐるぐる
TTITLE5=赤田首里殿内
TTITLE6=金木犀
TTITLE7=フラチ・ライフ
TTITLE8=水をくれ
TTITLE9=涙の河
TTITLE10=touch the light of my soul
TTITLE11=冷たくしないで
EXTD=
EXTT0=
EXTT1=
EXTT2=
EXTT3=
EXTT4=
EXTT5=
EXTT6=
EXTT7=
EXTT8=
EXTT9=
EXTT10=
EXTT11=
PLAYORDER=
